<?xml version="1.0" encoding="utf-8"?>
<!-- Generator: Adobe Illustrator 16.0.0, SVG Export Plug-In . SVG Version: 6.00 Build 0)  -->
<!DOCTYPE svg PUBLIC "-//W3C//DTD SVG 1.1//EN" "http://www.w3.org/Graphics/SVG/1.1/DTD/svg11.dtd">
<svg version="1.1" id="Layer_1" xmlns="http://www.w3.org/2000/svg" xmlns:xlink="http://www.w3.org/1999/xlink" x="0px" y="0px"
	 width="36px" height="36px" viewBox="0 0 36 36" enable-background="new 0 0 36 36" xml:space="preserve">
<g>
	<defs>
		<rect id="SVGID_1_" width="36" height="36"/>
	</defs>
	<clipPath id="SVGID_2_">
		<use xlink:href="#SVGID_1_"  overflow="visible"/>
	</clipPath>
	<g clip-path="url(#SVGID_2_)">
		<defs>
			<rect id="SVGID_3_" width="36" height="36"/>
		</defs>
		<clipPath id="SVGID_4_">
			<use xlink:href="#SVGID_3_"  overflow="visible"/>
		</clipPath>
		<path clip-path="url(#SVGID_4_)" fill="#231F20" d="M32,32h-4V4h4V32z M26,32h-4V9h4V32z M20,32h-4V13h4V32z M14,32h-4V18h4V32z
			 M8,32H4v-9h4V32z M32,2h-4c-1.104,0-2,0.896-2,2v3h-4c-1.104,0-2,0.896-2,2v2h-4c-1.104,0-2,0.896-2,2v3h-4c-1.104,0-2,0.896-2,2
			v3H4c-1.104,0-2,0.896-2,2v9c0,1.104,0.896,2,2,2h28c1.104,0,2-0.896,2-2V4C34,2.896,33.104,2,32,2"/>
	</g>
</g>
</svg>
