<?xml version="1.0" encoding="utf-8"?>
<!-- Generator: Adobe Illustrator 16.0.0, SVG Export Plug-In . SVG Version: 6.00 Build 0)  -->
<!DOCTYPE svg PUBLIC "-//W3C//DTD SVG 1.1//EN" "http://www.w3.org/Graphics/SVG/1.1/DTD/svg11.dtd">
<svg version="1.1" id="Layer_1" xmlns="http://www.w3.org/2000/svg" xmlns:xlink="http://www.w3.org/1999/xlink" x="0px" y="0px"
	 width="36px" height="36px" viewBox="0 0 36 36" enable-background="new 0 0 36 36" xml:space="preserve">
<g>
	<defs>
		<rect id="SVGID_1_" width="36" height="36"/>
	</defs>
	<clipPath id="SVGID_2_">
		<use xlink:href="#SVGID_1_"  overflow="visible"/>
	</clipPath>
	<g clip-path="url(#SVGID_2_)">
		<defs>
			<rect id="SVGID_3_" width="36" height="36"/>
		</defs>
		<clipPath id="SVGID_4_">
			<use xlink:href="#SVGID_3_"  overflow="visible"/>
		</clipPath>
		<path clip-path="url(#SVGID_4_)" fill="#231F20" d="M33.562,26.026c-0.036-0.106-0.081-0.21-0.134-0.309
			c-0.037-0.067-3.646-6.767-9.427-16.279V9c1.104,0,2-0.896,2-2V4c0-1.104-0.896-2-2-2h-12c-1.105,0-2,0.896-2,2v3
			c0,1.104,0.895,2,2,2v0.439c-5.783,9.515-9.393,16.234-9.43,16.301c-0.053,0.099-0.097,0.201-0.133,0.307
			C1.698,28.244,1.903,30.381,3,31.909C3.968,33.258,5.534,34,7.408,34h21.183c1.871,0,3.435-0.743,4.404-2.093
			C34.097,30.372,34.304,28.229,33.562,26.026 M12,4h12v3H12V4z M28.591,32H7.408c-2.981,0-4.008-2.544-3.074-5.314
			c0,0,3.674-6.852,9.666-16.686V8h8.001v2c5.992,9.833,9.665,16.665,9.665,16.665C32.6,29.436,31.573,32,28.591,32"/>
		<path clip-path="url(#SVGID_4_)" fill="#231F20" d="M24.759,18H11.263c-3.041,5.324-4.748,8.775-5.07,9.435
			c-0.273,0.879-0.254,1.712,0.056,2.141C6.451,29.857,6.841,30,7.408,30h21.183c0.563,0,0.952-0.144,1.155-0.427
			c0.313-0.437,0.335-1.275,0.06-2.161C29.488,26.758,27.791,23.316,24.759,18 M10.501,28c-0.829,0-1.5-0.672-1.5-1.498
			c0-0.83,0.671-1.502,1.5-1.502s1.5,0.672,1.5,1.502C12.001,27.328,11.33,28,10.501,28 M13.501,24c-0.829,0-1.5-0.674-1.5-1.502
			c0-0.826,0.671-1.498,1.5-1.498c0.828,0,1.5,0.672,1.5,1.498C15.001,23.326,14.329,24,13.501,24"/>
	</g>
</g>
</svg>
