<?xml version="1.0" encoding="utf-8"?>
<!-- Generator: Adobe Illustrator 16.0.0, SVG Export Plug-In . SVG Version: 6.00 Build 0)  -->
<!DOCTYPE svg PUBLIC "-//W3C//DTD SVG 1.1//EN" "http://www.w3.org/Graphics/SVG/1.1/DTD/svg11.dtd">
<svg version="1.1" id="Layer_1" xmlns="http://www.w3.org/2000/svg" xmlns:xlink="http://www.w3.org/1999/xlink" x="0px" y="0px"
	 width="36px" height="36px" viewBox="0 0 36 36" enable-background="new 0 0 36 36" xml:space="preserve">
<g>
	<defs>
		<rect id="SVGID_1_" width="36" height="36"/>
	</defs>
	<clipPath id="SVGID_2_">
		<use xlink:href="#SVGID_1_"  overflow="visible"/>
	</clipPath>
	<g clip-path="url(#SVGID_2_)">
		<defs>
			<rect id="SVGID_3_" width="36" height="36"/>
		</defs>
		<clipPath id="SVGID_4_">
			<use xlink:href="#SVGID_3_"  overflow="visible"/>
		</clipPath>
		<path clip-path="url(#SVGID_4_)" fill="#231F20" d="M29.313,6.687C26.291,3.665,22.273,2,18,2S9.709,3.665,6.687,6.687
			C3.665,9.709,2,13.727,2,18.001c0,4.272,1.664,8.291,4.686,11.312c3.022,3.023,7.039,4.688,11.313,4.688
			c4.273,0,8.292-1.664,11.313-4.688C32.336,26.292,34,22.273,34,18C34,13.727,32.335,9.709,29.313,6.687 M27.899,27.899
			c-2.734,2.734-6.316,4.102-9.899,4.102c-3.583,0-7.166-1.368-9.899-4.102c-5.468-5.468-5.468-14.331,0-19.798
			c2.735-2.734,6.317-4.1,9.899-4.1c3.583,0,7.165,1.366,9.899,4.1C33.366,13.568,33.367,22.432,27.899,27.899"/>
		<path clip-path="url(#SVGID_4_)" fill="#231F20" d="M26.485,9.515c-2.266-2.265-5.279-3.514-8.484-3.514h-0.002
			c-3.204,0.002-6.22,1.249-8.487,3.517c-2.267,2.266-3.515,5.283-3.516,8.486c0,6.617,5.382,12,11.998,12h0.002
			c3.204,0,6.22-1.249,8.486-3.515c2.268-2.269,3.516-5.283,3.517-8.488C30.001,14.796,28.752,11.782,26.485,9.515 M9.549,10.963
			l2.088,2.088l1.414-1.414L10.963,9.55C12.68,8.116,14.77,7.251,17,7.05v8.66c-0.576,0.252-1.038,0.714-1.29,1.29H7.045
			C7.246,14.769,8.113,12.681,9.549,10.963 M17.994,29.004c-0.023,0-0.045-0.004-0.067-0.004h0.137
			C18.041,29,18.018,29.004,17.994,29.004 M26.45,25.037l-2.086-2.087l-1.414,1.414l2.087,2.088
			c-1.718,1.436-3.807,2.302-6.037,2.503V26h-2v2.954c-2.284-0.207-4.37-1.11-6.038-2.502l2.089-2.088l-1.414-1.414l-2.089,2.088
			C8.156,23.37,7.253,21.285,7.047,19h8.663c0.386,0.882,1.263,1.499,2.289,1.499c1.382,0,2.5-1.12,2.5-2.5
			c0-1.024-0.617-1.901-1.499-2.288V7.05c2.229,0.199,4.318,1.064,6.036,2.499l-2.086,2.088l1.414,1.414l2.086-2.088
			c1.437,1.719,2.302,3.808,2.501,6.037H26v2h2.95C28.75,21.23,27.885,23.319,26.45,25.037"/>
	</g>
</g>
</svg>
