<?xml version="1.0" encoding="utf-8"?>
<!-- Generator: Adobe Illustrator 16.0.0, SVG Export Plug-In . SVG Version: 6.00 Build 0)  -->
<!DOCTYPE svg PUBLIC "-//W3C//DTD SVG 1.1//EN" "http://www.w3.org/Graphics/SVG/1.1/DTD/svg11.dtd">
<svg version="1.1" id="Layer_1" xmlns="http://www.w3.org/2000/svg" xmlns:xlink="http://www.w3.org/1999/xlink" x="0px" y="0px"
	 width="36px" height="36px" viewBox="0 0 36 36" enable-background="new 0 0 36 36" xml:space="preserve">
<g>
	<defs>
		<rect id="SVGID_1_" width="36" height="36"/>
	</defs>
	<clipPath id="SVGID_2_">
		<use xlink:href="#SVGID_1_"  overflow="visible"/>
	</clipPath>
	<rect x="9" y="18" clip-path="url(#SVGID_2_)" fill="#231F20" width="3" height="3"/>
	<rect x="13" y="14" clip-path="url(#SVGID_2_)" fill="#231F20" width="3" height="3"/>
	<rect x="13" y="18" clip-path="url(#SVGID_2_)" fill="#231F20" width="3" height="3"/>
	<rect x="9" y="14" clip-path="url(#SVGID_2_)" fill="#231F20" width="3" height="3"/>
</g>
<g>
	<defs>
		<rect id="SVGID_3_" width="36" height="36"/>
	</defs>
	<clipPath id="SVGID_4_">
		<use xlink:href="#SVGID_3_"  overflow="visible"/>
	</clipPath>
	<g clip-path="url(#SVGID_4_)">
		<defs>
			<rect id="SVGID_5_" width="36" height="36"/>
		</defs>
		<clipPath id="SVGID_6_">
			<use xlink:href="#SVGID_5_"  overflow="visible"/>
		</clipPath>
		<path clip-path="url(#SVGID_6_)" fill="#231F20" d="M33.414,13.105L31,10.69V4c0-1.104-0.896-2-2-2h-4
			c-0.596,0-1.131,0.261-1.497,0.674l-0.089-0.088C23.039,2.211,22.53,2,22,2c0,0-8.4,0-8.418,0C13,2.016,12.454,2.283,12.086,2.733
			L2.452,14.335C2.16,14.693,2,15.14,2,15.602V32c0,1.104,0.896,2,2,2h28c1.104,0,2-0.896,2-2V14.519
			C34,14.519,33.919,13.61,33.414,13.105 M23,19v13H4V15l8.761-10.708L23,14.531V15V19z M32,32h-8V15h8V32z M24,14h-0.469L13.53,4
			H15h4h3l3,3V4h4v7l3,3H24z"/>
	</g>
</g>
</svg>
