<?xml version="1.0" encoding="utf-8"?>
<!-- Generator: Adobe Illustrator 16.0.0, SVG Export Plug-In . SVG Version: 6.00 Build 0)  -->
<!DOCTYPE svg PUBLIC "-//W3C//DTD SVG 1.1//EN" "http://www.w3.org/Graphics/SVG/1.1/DTD/svg11.dtd">
<svg version="1.1" id="Layer_1" xmlns="http://www.w3.org/2000/svg" xmlns:xlink="http://www.w3.org/1999/xlink" x="0px" y="0px"
	 width="36px" height="36px" viewBox="0 0 36 36" enable-background="new 0 0 36 36" xml:space="preserve">
<g>
	<g>
		<defs>
			<rect id="SVGID_1_" width="36" height="36"/>
		</defs>
		<clipPath id="SVGID_2_">
			<use xlink:href="#SVGID_1_"  overflow="visible"/>
		</clipPath>
		<g clip-path="url(#SVGID_2_)">
			<g>
				<defs>
					<rect id="SVGID_3_" width="36" height="36"/>
				</defs>
				<clipPath id="SVGID_4_">
					<use xlink:href="#SVGID_3_"  overflow="visible"/>
				</clipPath>
				<path clip-path="url(#SVGID_4_)" fill="#9CD2CE" d="M33.414,13.105L31,10.69V4c0-1.104-0.896-2-2-2h-4
					c-0.596,0-1.131,0.261-1.497,0.674l-0.089-0.088C23.039,2.211,22.529,2,22,2c0,0-8.4,0-8.418,0
					C13,2.016,12.454,2.283,12.086,2.733L2.452,14.335C2.16,14.693,2,15.14,2,15.602V32c0,1.104,0.896,2,2,2h28c1.104,0,2-0.896,2-2
					V14.519C34,14.519,33.919,13.61,33.414,13.105 M23,19v13H4V15l8.761-10.708L23,14.531V15V19z M32,32h-8V15h8V32z M24,14h-0.469
					L13.53,4H15h4h3l3,3V4h4v7l3,3H24z"/>
			</g>
		</g>
	</g>
</g>
<g>
	<g>
		<g>
			<defs>
				<rect id="SVGID_5_" x="4.75" y="14.333" width="17" height="17"/>
			</defs>
			<clipPath id="SVGID_6_">
				<use xlink:href="#SVGID_5_"  overflow="visible"/>
			</clipPath>
			<g clip-path="url(#SVGID_6_)">
				<g>
					<defs>
						<rect id="SVGID_7_" x="4.75" y="14.333" width="17" height="17"/>
					</defs>
					<defs>
						<rect id="SVGID_8_" x="4.75" y="14.333" width="17" height="17"/>
					</defs>
					<clipPath id="SVGID_9_">
						<use xlink:href="#SVGID_7_"  overflow="visible"/>
					</clipPath>
					<clipPath id="SVGID_10_" clip-path="url(#SVGID_9_)">
						<use xlink:href="#SVGID_8_"  overflow="visible"/>
					</clipPath>
					<path clip-path="url(#SVGID_10_)" fill="#868048" d="M13.25,25.619c1.059,0,1.889-0.848,1.889-1.93v-6.482
						c0-1.082-0.83-1.93-1.889-1.93s-1.889,0.848-1.889,1.93v6.482C11.361,24.771,12.191,25.619,13.25,25.619 M12.306,17.208
						c0-0.545,0.401-0.985,0.944-0.985c0.544,0,0.944,0.44,0.944,0.985v6.482c0,0.545-0.4,0.986-0.944,0.986
						c-0.543,0-0.944-0.441-0.944-0.986V17.208z"/>
					<path clip-path="url(#SVGID_10_)" fill="#868048" d="M17.029,16.3c-0.146-0.085-0.311-0.127-0.474-0.127
						s-0.325,0.042-0.472,0.127c-0.293,0.168-0.473,0.48-0.473,0.817v2.357c0,0.254,0.102,0.496,0.282,0.674
						c0.731,0.719,1.134,1.672,1.134,2.686c0,2.082-1.694,3.777-3.777,3.777s-3.777-1.695-3.777-3.777
						c0-1.014,0.402-1.967,1.134-2.686c0.181-0.178,0.282-0.42,0.282-0.674v-2.357c0-0.337-0.18-0.649-0.473-0.817
						c-0.146-0.085-0.309-0.127-0.472-0.127S9.617,16.215,9.471,16.3c-2.329,1.349-3.776,3.852-3.776,6.534
						c0,4.166,3.39,7.555,7.556,7.555s7.556-3.389,7.556-7.555C20.806,20.152,19.358,17.649,17.029,16.3 M13.25,29.445
						c-3.651,0-6.611-2.961-6.611-6.611c0-2.445,1.332-4.574,3.306-5.716v2.357c-0.871,0.855-1.417,2.041-1.417,3.359
						c0,2.607,2.115,4.723,4.722,4.723s4.723-2.115,4.723-4.723c0-1.318-0.546-2.504-1.417-3.359v-2.357
						c1.974,1.143,3.306,3.271,3.306,5.716C19.861,26.484,16.901,29.445,13.25,29.445"/>
				</g>
			</g>
		</g>
	</g>
</g>
</svg>
