<?xml version="1.0" encoding="utf-8"?>
<!-- Generator: Adobe Illustrator 16.0.0, SVG Export Plug-In . SVG Version: 6.00 Build 0)  -->
<!DOCTYPE svg PUBLIC "-//W3C//DTD SVG 1.1//EN" "http://www.w3.org/Graphics/SVG/1.1/DTD/svg11.dtd">
<svg version="1.1" id="Layer_1" xmlns="http://www.w3.org/2000/svg" xmlns:xlink="http://www.w3.org/1999/xlink" x="0px" y="0px"
	 width="36px" height="36px" viewBox="0 0 36 36" enable-background="new 0 0 36 36" xml:space="preserve">
<g>
	<defs>
		<rect id="SVGID_1_" width="36" height="36"/>
	</defs>
	<clipPath id="SVGID_2_">
		<use xlink:href="#SVGID_1_"  overflow="visible"/>
	</clipPath>
	<g clip-path="url(#SVGID_2_)">
		<defs>
			<rect id="SVGID_3_" width="36" height="36"/>
		</defs>
		<clipPath id="SVGID_4_">
			<use xlink:href="#SVGID_3_"  overflow="visible"/>
		</clipPath>
		<path clip-path="url(#SVGID_4_)" fill="#231F20" d="M23.579,4c2.155,0,4.311,0.813,5.955,2.44c3.288,3.256,3.289,8.532,0,11.788
			c-1.1,1.087-2.432,1.802-3.835,2.162c-0.003,0.002-0.004,0.009-0.006,0.009c-0.24,0.059-4.341,1.266-4.721,1.437
			c-0.247,0.115-0.885,0.646-1.142,0.823l-1.704-1.704l6.542-3.717c0.257-0.139,0.351-0.459,0.21-0.713
			c-0.097-0.174-0.276-0.273-0.464-0.273c-0.086,0-0.174,0.021-0.255,0.065l-6.808,3.863l-1.69-1.69l3.892-6.729
			c0.141-0.253,0.048-0.573-0.21-0.713c-0.081-0.044-0.169-0.065-0.255-0.065c-0.188,0-0.369,0.099-0.466,0.274l-3.741,6.452
			l-1.706-1.705c0.165-0.241,0.69-0.86,0.799-1.093c0.172-0.374,1.393-4.431,1.451-4.669c0-0.002,0.007-0.003,0.009-0.005
			c0.364-1.389,1.088-2.706,2.187-3.795C19.268,4.813,21.423,4,23.579,4 M11.38,15.62l9,9.001L15.001,30h-5c0,0-1.643,2-3,2
			C5.344,32,4,30.657,4,29c0-1.356,2-3,2-3v-5.001L11.38,15.62 M23.579,2c-2.781,0-5.396,1.072-7.363,3.02
			c-1.267,1.254-2.187,2.82-2.669,4.536c-0.025,0.07-0.047,0.141-0.065,0.214c-0.081,0.299-0.908,3.04-1.239,4.045
			c-0.267-0.127-0.561-0.195-0.863-0.195c-0.53,0-1.039,0.211-1.414,0.586l-5.379,5.379c-0.375,0.375-0.586,0.884-0.586,1.414v4.121
			C3.146,25.977,2,27.419,2,29c0,2.757,2.244,5,5,5c1.582,0,3.025-1.146,3.881-2h4.12c0.53,0,1.039-0.211,1.414-0.586l5.379-5.379
			c0.671-0.67,0.767-1.697,0.286-2.469c1.034-0.333,3.767-1.141,4.105-1.229c0.06-0.016,0.118-0.033,0.176-0.054
			c1.733-0.475,3.313-1.383,4.579-2.633c1.974-1.955,3.059-4.551,3.059-7.315c0.002-2.765-1.085-5.362-3.058-7.315
			C28.973,3.072,26.359,2,23.579,2"/>
	</g>
</g>
</svg>
