<?xml version="1.0" encoding="utf-8"?>
<!-- Generator: Adobe Illustrator 16.0.0, SVG Export Plug-In . SVG Version: 6.00 Build 0)  -->
<!DOCTYPE svg PUBLIC "-//W3C//DTD SVG 1.1//EN" "http://www.w3.org/Graphics/SVG/1.1/DTD/svg11.dtd">
<svg version="1.1" id="Layer_1" xmlns="http://www.w3.org/2000/svg" xmlns:xlink="http://www.w3.org/1999/xlink" x="0px" y="0px"
	 width="36px" height="36px" viewBox="0 0 36 36" enable-background="new 0 0 36 36" xml:space="preserve">
<g>
	<defs>
		<rect id="SVGID_1_" width="36" height="36"/>
	</defs>
	<clipPath id="SVGID_2_">
		<use xlink:href="#SVGID_1_"  overflow="visible"/>
	</clipPath>
	<g clip-path="url(#SVGID_2_)">
		<defs>
			<rect id="SVGID_3_" width="36" height="36"/>
		</defs>
		<clipPath id="SVGID_4_">
			<use xlink:href="#SVGID_3_"  overflow="visible"/>
		</clipPath>
		<path clip-path="url(#SVGID_4_)" fill="#231F20" d="M27.999,4l-9,9h13l-25,19l8-14h-11l10-14H27.999 M31.999,13h0.004 M27.999,2
			h-14c-0.646,0-1.252,0.312-1.629,0.837l-10,14c-0.433,0.61-0.492,1.412-0.15,2.078C2.563,19.582,3.249,20,3.999,20h7.553
			L5.263,31.008c-0.473,0.825-0.297,1.868,0.416,2.495C6.056,33.833,6.526,34,6.999,34c0.426,0,0.852-0.135,1.209-0.408
			l24.959-18.969c0.506-0.363,0.834-0.955,0.834-1.623c0-1.104-0.893-2-1.998-2h-0.004h-8.172l5.586-5.586
			c0.572-0.572,0.742-1.432,0.434-2.179C29.536,2.487,28.808,2,27.999,2"/>
	</g>
</g>
</svg>
