<?xml version="1.0" encoding="utf-8"?>
<!-- Generator: Adobe Illustrator 16.0.0, SVG Export Plug-In . SVG Version: 6.00 Build 0)  -->
<!DOCTYPE svg PUBLIC "-//W3C//DTD SVG 1.1//EN" "http://www.w3.org/Graphics/SVG/1.1/DTD/svg11.dtd">
<svg version="1.1" id="Layer_1" xmlns="http://www.w3.org/2000/svg" xmlns:xlink="http://www.w3.org/1999/xlink" x="0px" y="0px"
	 width="36px" height="36px" viewBox="0 0 36 36" enable-background="new 0 0 36 36" xml:space="preserve">
<g>
	<defs>
		<rect id="SVGID_1_" width="36" height="36"/>
	</defs>
	<clipPath id="SVGID_2_">
		<use xlink:href="#SVGID_1_"  overflow="visible"/>
	</clipPath>
	<g clip-path="url(#SVGID_2_)">
		<defs>
			<rect id="SVGID_3_" width="36" height="36"/>
		</defs>
		<clipPath id="SVGID_4_">
			<use xlink:href="#SVGID_3_"  overflow="visible"/>
		</clipPath>
		<path clip-path="url(#SVGID_4_)" fill="#231F20" d="M13.123,4l5.305,24.75l4.894-16.162l4.934,16.404H32V32h-6.048l-2.631-8.721
			L20.689,32h-4.741l-2.825-13.196L10.299,32H4v-3.008h3.789L13.123,4 M13.123,2L13.123,2c-0.944,0-1.759,0.66-1.956,1.582
			l-4.996,23.41H4c-1.105,0-2,0.896-2,2V32c0,1.104,0.895,2,2,2h6.299c0.943,0,1.759-0.659,1.956-1.581l0.868-4.061l0.869,4.061
			C14.19,33.341,15.005,34,15.948,34h4.741c0.882,0,1.66-0.578,1.914-1.422l0.718-2.375l0.716,2.375
			C24.292,33.422,25.07,34,25.952,34H32c1.104,0,2-0.896,2-2v-3.008c0-1.104-0.896-2-2-2h-2.258l-4.506-14.98
			c-0.254-0.845-1.031-1.423-1.913-1.424h-0.002c-0.881,0-1.658,0.577-1.914,1.42l-2.648,8.746l-3.68-17.173
			C14.881,2.659,14.066,2,13.123,2"/>
	</g>
</g>
</svg>
