<?xml version="1.0" encoding="utf-8"?>
<!-- Generator: Adobe Illustrator 16.0.0, SVG Export Plug-In . SVG Version: 6.00 Build 0)  -->
<!DOCTYPE svg PUBLIC "-//W3C//DTD SVG 1.1//EN" "http://www.w3.org/Graphics/SVG/1.1/DTD/svg11.dtd">
<svg version="1.1" id="Layer_1" xmlns="http://www.w3.org/2000/svg" xmlns:xlink="http://www.w3.org/1999/xlink" x="0px" y="0px"
	 width="32px" height="32px" viewBox="0 0 32 32" enable-background="new 0 0 32 32" xml:space="preserve">
<g>
	<g>
		<g>
			<g>
				<g>
					<rect x="22.001" y="13" fill="#FFFFFF" width="8" height="17"/>
					<polygon fill="#FFFFFF" points="22.001,12 30.001,12 27.001,9 27.001,2 23.001,2 23.001,5 20.001,2 13.001,2 22.001,11.9 					
						"/>
					<polygon fill="#FFFFFF" points="2.001,13 2.001,30 21.001,30 21.001,13 11.001,2 					"/>
				</g>
			</g>
			<g>
				<g>
					<rect x="22.001" y="13" fill="none" stroke="#FFFFFF" stroke-miterlimit="10" width="8" height="17"/>
					<polygon fill="none" stroke="#FFFFFF" stroke-miterlimit="10" points="22.001,12 30.001,12 27.001,9 27.001,2 23.001,2 
						23.001,5 20.001,2 13.001,2 22.001,11.9 					"/>
					<polygon fill="none" stroke="#FFFFFF" stroke-miterlimit="10" points="2.001,13 2.001,30 21.001,30 21.001,13 11.001,2 					
						"/>
				</g>
			</g>
		</g>
	</g>
</g>
<g>
	<g>
		<g>
			<g>
				<defs>
					<rect id="SVGID_1_" x="3.486" y="11.619" width="16.444" height="16.443"/>
				</defs>
				<clipPath id="SVGID_2_">
					<use xlink:href="#SVGID_1_"  overflow="visible"/>
				</clipPath>
				<g clip-path="url(#SVGID_2_)">
					<g>
						<g>
							<defs>
								<rect id="SVGID_3_" x="3.486" y="11.619" width="16.444" height="16.443"/>
							</defs>
							<clipPath id="SVGID_4_">
								<use xlink:href="#SVGID_3_"  overflow="visible"/>
							</clipPath>
							<g clip-path="url(#SVGID_4_)">
								<g>
									<g>
										<path fill="#231F20" d="M14.791,13.24v2.441c1.028,0.91,2.066,2.435,2.066,4.159c0,2.786-2.333,5.053-5.116,5.053
											c-2.785,0-5.181-2.267-5.181-5.053c0-1.725,1.038-3.249,2.065-4.159V13.24c-2.569,1.108-4.111,3.648-4.111,6.6
											c0,3.969,3.146,7.194,7.112,7.194c3.968,0,7.274-3.228,7.274-7.194C18.9,16.889,17.359,14.348,14.791,13.24z"/>
										<path fill="#231F20" d="M11.708,21.845c0.592,0,1.028-0.48,1.028-1.071V13.72c0-0.594-0.436-1.072-1.028-1.072
											c-0.591,0-1.028,0.479-1.028,1.072v7.054C10.68,21.364,11.117,21.845,11.708,21.845z"/>
									</g>
								</g>
							</g>
						</g>
					</g>
				</g>
			</g>
		</g>
	</g>
</g>
</svg>
