<?xml version="1.0" encoding="utf-8"?>
<!-- Generator: Adobe Illustrator 16.0.0, SVG Export Plug-In . SVG Version: 6.00 Build 0)  -->
<!DOCTYPE svg PUBLIC "-//W3C//DTD SVG 1.1//EN" "http://www.w3.org/Graphics/SVG/1.1/DTD/svg11.dtd">
<svg version="1.1" id="Layer_1" xmlns="http://www.w3.org/2000/svg" xmlns:xlink="http://www.w3.org/1999/xlink" x="0px" y="0px"
	 width="36px" height="36px" viewBox="0 0 36 36" enable-background="new 0 0 36 36" xml:space="preserve">
<g>
	<defs>
		<rect id="SVGID_1_" width="36" height="36"/>
	</defs>
	<clipPath id="SVGID_2_">
		<use xlink:href="#SVGID_1_"  overflow="visible"/>
	</clipPath>
	<g clip-path="url(#SVGID_2_)">
		<defs>
			<rect id="SVGID_3_" width="36" height="36"/>
		</defs>
		<clipPath id="SVGID_4_">
			<use xlink:href="#SVGID_3_"  overflow="visible"/>
		</clipPath>
		<path clip-path="url(#SVGID_4_)" fill="#231F20" d="M18,2C9.164,2,2,9.165,2,18c0,8.836,7.164,16,16,16c8.836,0,16-7.163,16-16
			C34,9.165,26.836,2,18,2 M19,4.034c4.812,0.336,8.951,3.099,11.197,7.083L19,16.419V4.034z M17.983,31.968
			c-7.723,0-13.985-6.281-13.985-14.029C3.999,10.538,9.753,4.493,17,3.967v14.411l10.109,10.169
			C24.657,30.67,21.476,31.968,17.983,31.968 M28.559,27.145l-8.849-8.849l11.39-5.26c0.58,1.537,0.9,3.202,0.9,4.941
			C32,21.488,30.694,24.688,28.559,27.145"/>
	</g>
</g>
</svg>
