<?xml version="1.0" encoding="utf-8"?>
<!-- Generator: Adobe Illustrator 16.0.0, SVG Export Plug-In . SVG Version: 6.00 Build 0)  -->
<!DOCTYPE svg PUBLIC "-//W3C//DTD SVG 1.1//EN" "http://www.w3.org/Graphics/SVG/1.1/DTD/svg11.dtd">
<svg version="1.1" id="Layer_1" xmlns="http://www.w3.org/2000/svg" xmlns:xlink="http://www.w3.org/1999/xlink" x="0px" y="0px"
	 width="36px" height="36px" viewBox="0 0 36 36" enable-background="new 0 0 36 36" xml:space="preserve">
<g>
	<defs>
		<rect id="SVGID_1_" width="36" height="36"/>
	</defs>
	<clipPath id="SVGID_2_">
		<use xlink:href="#SVGID_1_"  overflow="visible"/>
	</clipPath>
	<g clip-path="url(#SVGID_2_)">
		<defs>
			<rect id="SVGID_3_" width="36" height="36"/>
		</defs>
		<clipPath id="SVGID_4_">
			<use xlink:href="#SVGID_3_"  overflow="visible"/>
		</clipPath>
		<path clip-path="url(#SVGID_4_)" fill="#231F20" d="M18,23.901c2.243,0,4-1.795,4-4.087V6.087C22,3.795,20.243,2,18,2
			s-4,1.795-4,4.087v13.728C14,22.106,15.757,23.901,18,23.901 M16,6.087C16,4.933,16.85,4,18,4c1.152,0,2,0.933,2,2.087v13.728
			c0,1.15-0.848,2.087-2,2.087c-1.15,0-2-0.937-2-2.087V6.087z"/>
		<path clip-path="url(#SVGID_4_)" fill="#231F20" d="M26.002,4.166c-0.31-0.18-0.656-0.27-1.002-0.27
			c-0.345,0-0.689,0.089-0.999,0.268C23.382,4.521,23,5.182,23,5.896v4.992c0,0.537,0.216,1.05,0.599,1.426
			C25.147,13.835,26,15.854,26,18c0,4.411-3.589,8-8,8s-8-3.589-8-8c0-2.146,0.853-4.165,2.401-5.686
			C12.784,11.938,13,11.425,13,10.888V5.896c0-0.714-0.382-1.375-1.001-1.732C11.689,3.985,11.345,3.896,11,3.896
			c-0.346,0-0.692,0.09-1.002,0.27C5.064,7.021,2,12.323,2,18c0,8.822,7.178,16,16,16c8.822,0,16-7.178,16-16
			C34,12.323,30.936,7.021,26.002,4.166 M18,32c-7.732,0-14-6.268-14-14c0-5.178,2.82-9.684,7-12.104v4.992
			C9.155,12.699,8,15.21,8,18c0,5.521,4.479,10,10,10c5.521,0,10-4.479,10-10c0-2.79-1.155-5.301-3-7.112V5.896
			c4.18,2.42,7,6.926,7,12.104C32,25.732,25.732,32,18,32"/>
	</g>
</g>
</svg>
