<?xml version="1.0" encoding="utf-8"?>
<!-- Generator: Adobe Illustrator 16.0.0, SVG Export Plug-In . SVG Version: 6.00 Build 0)  -->
<!DOCTYPE svg PUBLIC "-//W3C//DTD SVG 1.1//EN" "http://www.w3.org/Graphics/SVG/1.1/DTD/svg11.dtd">
<svg version="1.1" id="Layer_1" xmlns="http://www.w3.org/2000/svg" xmlns:xlink="http://www.w3.org/1999/xlink" x="0px" y="0px"
	 width="32px" height="32px" viewBox="0 0 32 32" enable-background="new 0 0 32 32" xml:space="preserve">
<g>
	<defs>
		<rect id="SVGID_1_" width="32" height="32"/>
	</defs>
	<clipPath id="SVGID_2_">
		<use xlink:href="#SVGID_1_"  overflow="visible"/>
	</clipPath>
	<g clip-path="url(#SVGID_2_)">
		<defs>
			<rect id="SVGID_3_" width="32" height="32"/>
		</defs>
		<clipPath id="SVGID_4_">
			<use xlink:href="#SVGID_3_"  overflow="visible"/>
		</clipPath>
		<path clip-path="url(#SVGID_4_)" fill="#231F20" d="M16.001,19.901c1.152,0,2-0.936,2-2.087V4.088c0-1.155-0.848-2.087-2-2.087
			c-1.15,0-2,0.932-2,2.087v13.727C14.001,18.966,14.851,19.901,16.001,19.901 M22.001,3.155v4.749c2,1.773,4.021,4.74,4.021,8.097
			c0,5.42-4.538,9.831-9.957,9.831c-5.42,0-10.083-4.411-10.083-9.831c0-3.357,2.02-6.324,4.02-8.097V3.155
			c-5,2.158-8,7.101-8,12.846c0,7.72,6.123,14,13.842,14c7.721,0,14.158-6.28,14.158-14C30.001,10.256,27.001,5.313,22.001,3.155"/>
	</g>
</g>
</svg>
