<?xml version="1.0" encoding="utf-8"?>
<!-- Generator: Adobe Illustrator 16.0.0, SVG Export Plug-In . SVG Version: 6.00 Build 0)  -->
<!DOCTYPE svg PUBLIC "-//W3C//DTD SVG 1.1//EN" "http://www.w3.org/Graphics/SVG/1.1/DTD/svg11.dtd">
<svg version="1.1" id="Layer_1" xmlns="http://www.w3.org/2000/svg" xmlns:xlink="http://www.w3.org/1999/xlink" x="0px" y="0px"
	 width="36px" height="36px" viewBox="0 0 36 36" enable-background="new 0 0 36 36" xml:space="preserve">
<g>
	<defs>
		<rect id="SVGID_1_" width="36" height="36"/>
	</defs>
	<clipPath id="SVGID_2_">
		<use xlink:href="#SVGID_1_"  overflow="visible"/>
	</clipPath>
	<g clip-path="url(#SVGID_2_)">
		<defs>
			<rect id="SVGID_3_" width="36" height="36"/>
		</defs>
		<clipPath id="SVGID_4_">
			<use xlink:href="#SVGID_3_"  overflow="visible"/>
		</clipPath>
		<path clip-path="url(#SVGID_4_)" fill="#231F20" d="M18,4c0.477,0,0.896,0.309,1.037,0.765l1.051,3.384
			c0.215,0.693,0.658,1.089,1.217,1.089c0.344,0,0.723-0.146,1.09-0.414l2.943-2.163c0.195-0.142,0.428-0.216,0.658-0.216
			c0.225,0,0.451,0.07,0.641,0.212C27.02,6.949,27.166,7.428,27,7.878l-1.246,3.271c-0.188,0.502-0.176,0.833,0.033,1.134
			c0.189,0.271,0.549,0.294,1.012,0.294c0.094,0,0.193-0.001,0.295-0.001h0.08l3.709,0.122h0.027c0.48,0,0.898,0.53,1.041,0.988
			c0.145,0.464-0.039,0.969-0.445,1.233l-3.062,1.999c-0.49,0.316-0.77,0.712-0.77,1.083c0,0.367,0.281,0.763,0.77,1.081
			l3.062,1.999c0.408,0.264,0.59,0.769,0.445,1.23c-0.141,0.451-0.557,0.767-1.018,0.767c-0.016,0-0.033,0-0.049-0.001l-3.791-0.1
			c-0.604,0-1.078,0.188-1.307,0.517c-0.209,0.301-0.221,0.741-0.033,1.243l1.244,3.328c0.168,0.45,0.021,0.958-0.361,1.246
			c-0.195,0.147-0.426,0.222-0.658,0.222c-0.225,0-0.451-0.07-0.641-0.21l-2.943-2.153c-0.369-0.27-0.746-0.412-1.09-0.412
			c-0.559,0-1.002,0.396-1.217,1.089l-1.049,3.387C18.898,31.689,18.477,32,18,32c-0.477,0-0.896-0.311-1.037-0.767l-1.051-3.389
			c-0.215-0.692-0.658-1.091-1.219-1.091c-0.343,0-0.72,0.141-1.088,0.41l-2.943,2.147c-0.187,0.137-0.408,0.204-0.629,0.204
			c-0.236,0-0.472-0.077-0.67-0.228C8.98,28.998,8.832,28.467,9,28.017l1.246-3.375c0.188-0.503,0.174-1.042-0.033-1.344
			c-0.229-0.326-0.703-0.709-1.307-0.709h-0.08l-3.709,0.295c-0.033,0.001-0.064,0.002-0.096,0.002
			c-0.453,0-0.837-0.138-0.972-0.574c-0.145-0.462,0.037-0.967,0.445-1.23l3.063-1.999c0.488-0.318,0.767-0.714,0.767-1.081
			c0-0.371-0.279-0.767-0.767-1.083l-3.063-1.999c-0.408-0.264-0.59-0.769-0.445-1.233c0.14-0.452,0.558-0.766,1.021-0.766
			c0.016,0,0.03,0,0.045,0.001l3.791,0.101c0.604,0,1.08-0.189,1.307-0.516c0.209-0.303,0.221-0.743,0.033-1.245L9.002,7.933
			C8.834,7.482,8.98,6.977,9.363,6.685c0.194-0.146,0.426-0.219,0.657-0.219c0.226,0,0.451,0.069,0.642,0.209l2.943,2.155
			c0.37,0.27,0.747,0.412,1.09,0.412c0.559,0,1.002-0.398,1.217-1.091l1.049-3.386C17.102,4.309,17.523,4,18,4 M18,25.104
			c3.918,0,7.104-3.188,7.104-7.104S21.918,10.896,18,10.896s-7.105,3.186-7.105,7.103S14.082,25.104,18,25.104 M18,11.934
			c3.35,0,6.066,2.715,6.066,6.065c0,3.352-2.717,6.067-6.066,6.067c-3.35,0-6.066-2.716-6.066-6.067
			C11.934,14.649,14.65,11.934,18,11.934 M18,2c-1.363,0-2.549,0.874-2.949,2.176l-0.819,2.635l-2.388-1.749
			c-0.533-0.391-1.164-0.596-1.824-0.596c-0.665,0-1.325,0.22-1.858,0.619C7.059,5.929,6.648,7.35,7.127,8.632l0.885,2.366
			L5.17,10.922c-0.018-0.001-0.082-0.002-0.1-0.002c-1.328,0-2.533,0.893-2.931,2.173c-0.409,1.316,0.113,2.759,1.269,3.506
			L5.555,18L3.4,19.406c-1.15,0.745-1.671,2.187-1.259,3.502c0.295,0.954,1.209,1.978,2.88,1.978c0.059,0,0.116-0.001,0.174-0.004
			c0.028-0.001,0.053-0.002,0.08-0.004l2.832-0.226l-0.982,2.672c-0.475,1.271-0.053,2.737,1.029,3.558
			c0.537,0.408,1.205,0.634,1.879,0.634c0.656,0,1.283-0.204,1.811-0.591l2.386-1.742l0.823,2.644C15.453,33.125,16.637,34,18,34
			c1.363,0,2.549-0.875,2.949-2.178l0.816-2.634l2.391,1.748c0.53,0.391,1.162,0.597,1.822,0.597c0.672,0,1.335-0.224,1.867-0.63
			c1.076-0.809,1.502-2.266,1.027-3.537l-0.885-2.364l2.844,0.074c0.018,0.001,0.084,0.002,0.102,0.002
			c1.324,0,2.527-0.892,2.926-2.169c0.412-1.317-0.109-2.76-1.268-3.508L30.445,18l2.154-1.406c1.148-0.746,1.67-2.188,1.262-3.502
			c-0.361-1.154-1.438-2.394-2.951-2.394h-0.008l-2.801-0.093l0.768-2.015c0.477-1.289,0.062-2.697-1.02-3.523
			c-0.547-0.41-1.184-0.622-1.854-0.622c-0.658,0-1.311,0.214-1.842,0.604l-2.389,1.756l-0.818-2.633C20.547,2.874,19.363,2,18,2"/>
	</g>
</g>
</svg>
